<svg width="63" height="62" viewBox="0 0 63 62" fill="none" xmlns="http://www.w3.org/2000/svg">
<g clip-path="url(#clip0_283_1096)">
<path d="M25.639 0.00195312C27.1008 0.274907 28.5914 0.440196 30.0168 0.840529C34.0369 1.96874 37.3442 4.23123 39.9721 7.46573C41.9616 9.91625 43.3476 12.6898 43.9148 15.7939C44.2317 17.5059 44.2711 19.2816 44.3909 21.0194C44.447 21.8428 44.4091 22.6738 44.3909 23.5003C44.3742 24.6543 43.6433 25.4155 42.506 25.4231C40.1253 25.4382 37.7445 25.4382 35.3637 25.4231C34.2567 25.4231 33.5273 24.6649 33.5 23.5427C33.4591 21.9308 33.5713 20.2991 33.3651 18.7099C32.5417 12.3683 25.4252 8.89419 19.8842 12.0999C16.9272 13.8165 15.3243 16.4292 15.247 19.8669C15.1772 22.8512 15.2303 25.8386 15.2303 28.8244C15.2303 28.9214 15.244 29.0185 15.2546 29.1792H42.2528C44.6199 29.1792 46.4532 30.1467 47.4723 32.3167C47.828 33.1051 48.013 33.9599 48.0151 34.8248C48.0566 42.0025 48.0621 49.1852 48.0318 56.373C48.0242 59.6318 45.6693 61.9838 42.4059 61.9838C30.3818 61.9959 18.3572 61.9959 6.33202 61.9838C3.06567 61.9838 0.712199 59.6333 0.703101 56.373C0.684904 49.1701 0.684904 41.9671 0.703101 34.7642C0.703101 32.4107 1.79643 30.6699 3.9467 29.6736C4.30609 29.5053 4.33187 29.2884 4.33036 28.9715C4.33036 26.0903 4.30761 23.2091 4.33036 20.3158C4.39253 13.2205 7.32072 7.58401 13.124 3.50183C15.9718 1.48955 19.1988 0.394704 22.688 0.0959706C22.8655 0.0808065 23.0414 0.0337978 23.2173 0.00195312H25.639ZM24.4258 32.8141H6.5701C4.98848 32.8141 4.33036 33.4722 4.33036 35.0538C4.33036 42.0758 4.33036 49.0978 4.33036 56.1198C4.33036 57.7029 4.98848 58.361 6.5701 58.361H42.1648C43.748 58.361 44.4061 57.7029 44.4061 56.1213V35.0538C44.4061 33.4722 43.748 32.8141 42.1663 32.8141H24.4258ZM11.594 29.1565V28.4392C11.594 25.7157 11.594 22.9918 11.594 20.2673C11.594 16.7583 12.7146 13.6633 15.2197 11.1946C18.9804 7.48848 23.4781 6.29809 28.5065 7.98586C33.9019 9.79645 37.1243 14.5201 37.141 20.2142C37.141 20.7313 37.141 21.2469 37.141 21.7458H40.7424C40.7424 20.8511 40.7819 20.0019 40.7424 19.1573C40.5377 15.4284 39.2761 12.0817 36.7679 9.31424C32.249 4.32676 26.6535 2.62838 20.1132 4.23881C13.6138 5.8371 8.49442 11.83 8.08196 18.5022C7.86663 21.999 7.99856 25.5186 7.97581 29.0291C7.97581 29.0625 8.01069 29.0958 8.04253 29.1534L11.594 29.1565Z" fill="black"/>
<path d="M62.6897 16.952C62.3591 17.6647 61.7798 18.0696 61.0823 18.4047C58.9259 19.4526 56.7863 20.5277 54.6451 21.615C54.0113 21.9349 53.3895 22.0365 52.7405 21.6847C52.4628 21.5368 52.2291 21.3183 52.0629 21.0512C51.8967 20.7841 51.8039 20.4779 51.7939 20.1635C51.7839 19.849 51.857 19.5375 52.0059 19.2604C52.1548 18.9833 52.3742 18.7504 52.6419 18.5852C53.203 18.2334 53.8187 17.968 54.4131 17.6753L59.5507 15.108C61.1005 14.3347 61.8086 14.5333 62.6897 15.9891V16.952Z" fill="black"/>
<path d="M62.6896 38.7452C62.6365 38.8256 62.5773 38.8969 62.5379 38.9863C62.0132 39.9917 61.0609 40.3511 60.0449 39.8613C57.6338 38.6846 55.2369 37.4876 52.8541 36.2705C51.873 35.7716 51.5379 34.7237 52.0019 33.8139C52.4659 32.904 53.4971 32.5613 54.4843 33.0435C56.8711 34.2157 59.2594 35.3879 61.6114 36.6253C62.0511 36.8558 62.3362 37.3835 62.6926 37.7763L62.6896 38.7452Z" fill="black"/>
<path d="M62.6895 27.8491C62.2057 28.8954 61.3778 29.2275 60.2526 29.1972C58.0583 29.1411 55.855 29.1972 53.6653 29.1745C52.3187 29.1608 51.4498 27.9173 51.9244 26.7179C52.211 25.993 52.7706 25.5699 53.544 25.5624C56.0021 25.5381 58.4602 25.5457 60.9168 25.5624C61.819 25.5624 62.3073 26.1689 62.6895 26.8862V27.8491Z" fill="black"/>
<path d="M22.6121 50.1713C22.6121 49.2827 22.5969 48.3956 22.6197 47.5085C22.6288 47.1597 22.5181 46.9883 22.1936 46.8337C20.1722 45.8707 19.05 44.2451 19.0091 42.0175C18.9666 39.8248 19.9751 38.1461 21.9221 37.0862C24.362 35.7578 27.6329 36.6479 29.0311 39.0059C30.5566 41.5838 29.9091 44.7516 27.5329 46.3575C27.3986 46.4771 27.2447 46.5725 27.0779 46.6396C26.2621 46.8261 26.2166 47.3856 26.2378 48.0877C26.2848 49.6193 26.256 51.1539 26.25 52.687C26.25 53.9092 25.4918 54.7357 24.4181 54.7235C23.3567 54.7144 22.6303 53.9001 22.6212 52.7128C22.6075 51.8636 22.6121 51.0174 22.6121 50.1713ZM24.4439 43.7068C24.8045 43.7053 25.1565 43.5966 25.4553 43.3947C25.754 43.1927 25.986 42.9066 26.1219 42.5725C26.2577 42.2385 26.2912 41.8716 26.2181 41.5185C26.1451 41.1654 25.9688 40.8419 25.7115 40.5892C25.4543 40.3364 25.1278 40.1658 24.7735 40.099C24.4191 40.0321 24.0529 40.0721 23.7213 40.2138C23.3897 40.3554 23.1076 40.5924 22.9109 40.8947C22.7143 41.1969 22.6118 41.5508 22.6166 41.9114C22.625 42.3905 22.8212 42.8471 23.163 43.1829C23.5048 43.5188 23.9648 43.7069 24.4439 43.7068Z" fill="black"/>
</g>
<defs>
<clipPath id="clip0_283_1096">
<rect width="62" height="61.9954" fill="white" transform="translate(0.689453 0.00195312)"/>
</clipPath>
</defs>
</svg>
