<svg width="81" height="52" viewBox="0 0 81 52" fill="none" xmlns="http://www.w3.org/2000/svg">
<path d="M27.6935 24.2946C27.1712 24.3289 26.6344 24.5326 25.8319 24.9798C25.9 24.9421 25.0676 25.4137 24.8335 25.5368C24.313 25.8072 23.8773 25.9773 23.3718 26.0505C22.8717 26.1229 22.3964 26.0891 21.84 25.988C21.6455 25.9513 21.4519 25.9102 21.2592 25.8647C21.1647 25.8427 20.8181 25.7591 20.7421 25.7423C19.9945 25.5673 19.5808 25.5202 19.2512 25.5768C17.9958 25.7753 16.9097 26.6738 16.3928 27.9771C15.3368 30.6314 16.7584 34.9459 19.2526 37.6302C20.5793 39.0479 21.2613 39.5244 21.5026 39.4816C21.7434 39.4356 21.914 39.3585 22.322 39.1122L22.4931 39.0083C23.5226 38.381 24.2624 38.0632 25.4209 37.8956C26.5356 37.7342 27.3097 37.8295 28.429 38.1312L28.6238 38.1832C29.0853 38.3059 29.2485 38.3247 29.5205 38.2786C29.9106 38.2166 30.327 37.697 31.1687 35.9733C31.3996 35.504 31.5932 35.0167 31.7511 34.529C31.5865 34.4291 31.4254 34.3234 31.2683 34.2121C29.6668 33.075 28.5349 31.3929 28.1875 29.1624C27.9247 27.5129 28.2348 25.8232 29.0661 24.3745C28.6153 24.2785 28.1524 24.2515 27.6935 24.2946ZM27.5476 22.0929C28.3282 22.0334 30.5765 21.9487 32.3231 23.8495C32.2147 23.9321 29.8984 25.7656 30.3685 28.8278C30.9388 32.4907 34.2859 33.2502 34.3271 33.2576C34.3142 33.3531 34.0684 35.0742 33.1489 36.9463C32.3543 38.5729 31.5186 40.1921 29.8715 40.4573C28.2526 40.7317 27.5844 39.8118 25.737 40.0793C23.8765 40.3486 23.4347 41.3623 21.9112 41.6497C20.3203 41.9335 18.876 40.4571 17.6416 39.1376C15.1221 36.4257 12.744 31.1784 14.3429 27.1613C15.1367 25.1603 16.8546 23.7211 18.9078 23.3971C20.4613 23.1321 22.0992 24.0052 23.0557 23.8668C23.999 23.7302 25.5071 22.2278 27.5476 22.0929ZM26.0146 20.2815C25.3109 21.4268 24.0378 22.4271 22.6731 22.5176C22.2886 21.1553 22.7594 19.6023 23.4146 18.5845C24.1445 17.4354 25.5019 16.4631 26.7128 16.2343C27.0749 17.6266 26.7183 19.1363 26.0146 20.2815Z" fill="black"/>
<rect x="1.69942" y="13.2872" width="39" height="37" rx="4.5" transform="rotate(-8.23686 1.69942 13.2872)" stroke="black" stroke-width="3"/>
<rect x="40.3157" y="1.67625" width="39" height="37" rx="4.5" transform="rotate(7.20348 40.3157 1.67625)" stroke="black" stroke-width="3"/>
<g clip-path="url(#clip0_172_4021)">
<path d="M57.3831 15.0896C57.3692 15.1998 57.3337 15.3062 57.2786 15.4027C57.2236 15.4992 57.1501 15.5839 57.0623 15.652C56.9745 15.7201 56.8741 15.7702 56.767 15.7995C56.6598 15.8288 56.5479 15.8367 56.4377 15.8228C56.3275 15.8089 56.2211 15.7734 56.1246 15.7183C56.0281 15.6633 55.9434 15.5898 55.8753 15.502C55.8072 15.4142 55.7571 15.3138 55.7278 15.2067C55.6984 15.0995 55.6905 14.9876 55.7045 14.8774C55.7326 14.6548 55.848 14.4525 56.0253 14.315C56.2026 14.1775 56.4273 14.116 56.6499 14.1442C56.8725 14.1723 57.0748 14.2877 57.2123 14.465C57.3498 14.6423 57.4112 14.867 57.3831 15.0896ZM59.796 16.2473C60.0186 16.2754 60.2432 16.214 60.4205 16.0765C60.5978 15.9389 60.7133 15.7366 60.7414 15.514C60.7695 15.2914 60.7081 15.0668 60.5706 14.8895C60.4331 14.7122 60.2308 14.5968 60.0082 14.5686C59.7855 14.5405 59.5609 14.6019 59.3836 14.7394C59.2063 14.877 59.0909 15.0793 59.0627 15.3019C59.0346 15.5245 59.0961 15.7491 59.2336 15.9264C59.3711 16.1037 59.5734 16.2191 59.796 16.2473Z" fill="black"/>
<path fill-rule="evenodd" clip-rule="evenodd" d="M53.1857 10.3281C53.2635 10.2677 53.3525 10.2232 53.4475 10.1972C53.5426 10.1712 53.6418 10.1642 53.7395 10.1765C53.8373 10.1889 53.9317 10.2204 54.0172 10.2692C54.1028 10.318 54.1779 10.3833 54.2383 10.4611L55.3027 11.8324C56.3399 11.3793 57.4805 11.2159 58.6031 11.3596L58.8085 11.3855C59.9742 11.5328 61.0241 11.9901 61.8874 12.6647L63.2595 11.6013C63.4172 11.4877 63.6128 11.4398 63.8051 11.4675C63.9975 11.4953 64.1715 11.5966 64.2906 11.7502C64.4097 11.9038 64.4646 12.0975 64.4436 12.2907C64.4226 12.4839 64.3275 12.6615 64.1782 12.7859L62.9589 13.7325C63.8879 14.9088 64.3647 16.379 64.3029 17.8767C64.6386 17.81 64.9854 17.8241 65.3147 17.9178C65.6439 18.0115 65.9462 18.1821 66.1966 18.4156C66.4469 18.649 66.6382 18.9386 66.7547 19.2605C66.8712 19.5824 66.9094 19.9274 66.8664 20.267L66.2298 25.3039C66.1873 25.6416 66.0656 25.9644 65.8747 26.2462C65.6838 26.5279 65.429 26.7605 65.1311 26.9251C64.8332 27.0896 64.5007 27.1815 64.1606 27.1931C63.8205 27.2048 63.4824 27.1359 63.174 26.9921L62.9401 28.8424C62.8256 29.7482 62.2828 30.494 61.5414 30.9053L61.3571 32.3637C61.2758 33.0062 60.9427 33.5902 60.4309 33.9871C59.9192 34.384 59.2707 34.5614 58.6281 34.4802C57.9856 34.399 57.4016 34.0658 57.0047 33.5541C56.6078 33.0423 56.4304 32.3938 56.5116 31.7512L56.6297 30.8167L55.8787 30.7218L55.7604 31.6573C55.6792 32.2999 55.3461 32.8838 54.8343 33.2808C54.3226 33.6777 53.6741 33.855 53.0315 33.7738C52.389 33.6926 51.805 33.3595 51.4081 32.8477C51.0111 32.3359 50.8338 31.6874 50.915 31.0449L51.0995 29.5855C50.7843 29.2885 50.5439 28.9211 50.3978 28.5134C50.2517 28.1057 50.2042 27.6692 50.259 27.2396L50.4928 25.3893C50.1583 25.4518 49.8137 25.4345 49.4872 25.3385C49.1607 25.2426 48.8615 25.0709 48.6139 24.8374C48.3663 24.6039 48.1774 24.3152 48.0626 23.9949C47.9478 23.6745 47.9103 23.3316 47.9532 22.994L48.5898 17.957C48.6326 17.6175 48.7555 17.293 48.9483 17.0103C49.1411 16.7276 49.3984 16.4948 49.6988 16.3309C49.9993 16.1671 50.3343 16.077 50.6764 16.0681C51.0185 16.0592 51.3578 16.1317 51.6664 16.2796C51.9792 14.8136 52.8068 13.5083 53.9992 12.6L53.0528 11.3797C52.931 11.2226 52.8767 11.0236 52.9016 10.8264C52.9265 10.6292 53.0287 10.45 53.1857 10.3281ZM53.2045 17.875C53.139 17.8673 53.0731 17.8857 53.0211 17.9264C52.9692 17.967 52.9354 18.0265 52.9271 18.092L51.7471 27.4277C51.7057 27.7557 51.7959 28.0868 51.998 28.3485C52.2001 28.6102 52.4977 28.7812 52.8256 28.8239L60.059 29.7382C60.3872 29.7783 60.718 29.6868 60.9789 29.4836C61.2397 29.2805 61.4095 28.9822 61.4509 28.6542L62.6309 19.3184C62.6392 19.253 62.6212 19.1869 62.581 19.1347C62.5408 19.0824 62.4816 19.0481 62.4162 19.0393L53.2045 17.875ZM62.6063 17.5514L62.8077 17.5769C62.7958 16.4194 62.3652 15.3053 61.5954 14.4408C60.8255 13.5764 59.7686 13.02 58.6202 12.8747L58.4149 12.8487C57.2664 12.7038 56.1044 12.9797 55.1436 13.6254C54.1829 14.2712 53.4886 15.243 53.1892 16.3612L62.6063 17.5514ZM57.9996 31.9403L58.1179 31.0048L59.987 31.241L59.8688 32.1766C59.8533 32.2993 59.8137 32.4178 59.7524 32.5252C59.6911 32.6327 59.6093 32.727 59.5115 32.8028C59.4138 32.8786 59.302 32.9344 59.1827 32.9671C59.0634 32.9997 58.9388 33.0085 58.8161 32.993C58.6934 32.9775 58.5749 32.938 58.4674 32.8767C58.36 32.8154 58.2657 32.7335 58.1898 32.6358C58.114 32.538 58.0582 32.4263 58.0256 32.307C57.9929 32.1876 57.9841 32.0631 57.9996 31.9403ZM52.6355 30.3118L54.3905 30.5337L54.2723 31.4692C54.241 31.7171 54.1125 31.9424 53.915 32.0955C53.7176 32.2486 53.4675 32.317 53.2196 32.2857C52.9717 32.2543 52.7465 32.1258 52.5934 31.9284C52.4402 31.731 52.3718 31.4808 52.4032 31.233L52.5214 30.2974L52.6355 30.3118ZM64.0039 25.6889C63.8306 25.667 63.673 25.5772 63.5658 25.4394C63.4585 25.3015 63.4103 25.1267 63.4316 24.9533L64.069 19.9104C64.0914 19.7368 64.1818 19.5792 64.3203 19.4722C64.3889 19.4193 64.4673 19.3803 64.5509 19.3577C64.6346 19.335 64.7219 19.329 64.8079 19.3401C64.8938 19.3511 64.9768 19.379 65.052 19.4221C65.1271 19.4653 65.1931 19.5228 65.2461 19.5914C65.299 19.66 65.338 19.7384 65.3606 19.822C65.3833 19.9057 65.3893 19.993 65.3782 20.0789L64.7416 25.1159C64.7196 25.2895 64.6296 25.4473 64.4913 25.5546C64.353 25.6619 64.1776 25.7108 64.0039 25.6889ZM51.3872 18.3055C51.4086 18.1318 51.3601 17.9567 51.2524 17.8187C51.1447 17.6807 50.9866 17.5912 50.8129 17.5697C50.6392 17.5483 50.464 17.5968 50.326 17.7045C50.1881 17.8122 50.0985 17.9703 50.0771 18.144L49.4404 23.1809C49.4178 23.3545 49.4651 23.5299 49.5719 23.6687C49.6786 23.8074 49.8361 23.898 50.0097 23.9206C50.1833 23.9432 50.3587 23.896 50.4974 23.7892C50.6362 23.6825 50.7268 23.525 50.7494 23.3514L51.387 18.3065L51.3872 18.3055Z" fill="black"/>
</g>
<defs>
<clipPath id="clip0_172_4021">
<rect width="24" height="24" fill="white" transform="translate(46.9414 9.06543) rotate(7.20348)"/>
</clipPath>
</defs>
</svg>
