<svg width="82" height="52" viewBox="0 0 82 52" fill="none" xmlns="http://www.w3.org/2000/svg">
<path d="M28.1154 24.2946C27.5931 24.3289 27.0563 24.5326 26.2538 24.9798C26.3219 24.9421 25.4895 25.4137 25.2554 25.5368C24.7349 25.8072 24.2992 25.9773 23.7936 26.0505C23.2936 26.1229 22.8183 26.0891 22.2619 25.988C22.0674 25.9513 21.8738 25.9102 21.6811 25.8647C21.5865 25.8427 21.24 25.7591 21.164 25.7423C20.4163 25.5673 20.0027 25.5202 19.6731 25.5768C18.4177 25.7753 17.3316 26.6738 16.8146 27.9771C15.7587 30.6314 17.1802 34.9459 19.6745 37.6302C21.0011 39.0479 21.6832 39.5244 21.9245 39.4816C22.1653 39.4356 22.3358 39.3585 22.7438 39.1122L22.9149 39.0083C23.9444 38.381 24.6843 38.0632 25.8427 37.8956C26.9575 37.7342 27.7315 37.8295 28.8509 38.1312L29.0457 38.1832C29.5071 38.3059 29.6704 38.3247 29.9424 38.2786C30.3325 38.2166 30.7488 37.697 31.5906 35.9733C31.8214 35.504 32.0151 35.0167 32.173 34.529C32.0083 34.4291 31.8473 34.3234 31.6901 34.2121C30.0887 33.075 28.9567 31.3929 28.6093 29.1624C28.3466 27.5129 28.6566 25.8232 29.488 24.3745C29.0371 24.2785 28.5743 24.2515 28.1154 24.2946ZM27.9694 22.0929C28.75 22.0334 30.9984 21.9487 32.745 23.8495C32.6366 23.9321 30.3203 25.7656 30.7903 28.8278C31.3607 32.4907 34.7078 33.2502 34.749 33.2576C34.7361 33.3531 34.4903 35.0742 33.5707 36.9463C32.7762 38.5729 31.9405 40.1921 30.2934 40.4573C28.6745 40.7317 28.0062 39.8118 26.1588 40.0793C24.2984 40.3486 23.8565 41.3623 22.3331 41.6497C20.7422 41.9335 19.2979 40.4571 18.0635 39.1376C15.544 36.4257 13.1659 31.1784 14.7647 27.1613C15.5586 25.1603 17.2765 23.7211 19.3297 23.3971C20.8831 23.1321 22.5211 24.0052 23.4775 23.8668C24.4209 23.7302 25.929 22.2278 27.9694 22.0929ZM26.4364 20.2815C25.7328 21.4268 24.4596 22.4271 23.095 22.5176C22.7105 21.1553 23.1813 19.6023 23.8365 18.5845C24.5664 17.4354 25.9238 16.4631 27.1347 16.2343C27.4968 17.6266 27.1401 19.1363 26.4364 20.2815Z" fill="black"/>
<rect x="2.1213" y="13.2872" width="39" height="37" rx="4.5" transform="rotate(-8.23686 2.1213 13.2872)" stroke="black" stroke-width="3"/>
<rect x="40.7376" y="1.67625" width="39" height="37" rx="4.5" transform="rotate(7.20348 40.7376 1.67625)" stroke="black" stroke-width="3"/>
<g clip-path="url(#clip0_253_1202)">
<path d="M57.805 15.0896C57.7911 15.1998 57.7555 15.3062 57.7005 15.4027C57.6454 15.4992 57.5719 15.5839 57.4841 15.652C57.3964 15.7201 57.296 15.7702 57.1888 15.7995C57.0817 15.8288 56.9698 15.8367 56.8596 15.8228C56.7494 15.8089 56.643 15.7734 56.5465 15.7183C56.45 15.6633 56.3652 15.5898 56.2972 15.502C56.2291 15.4142 56.1789 15.3138 56.1496 15.2067C56.1203 15.0995 56.1124 14.9876 56.1263 14.8774C56.1545 14.6548 56.2699 14.4525 56.4472 14.315C56.6245 14.1775 56.8491 14.116 57.0717 14.1442C57.2943 14.1723 57.4967 14.2877 57.6342 14.465C57.7717 14.6423 57.8331 14.867 57.805 15.0896ZM60.2179 16.2473C60.4405 16.2754 60.6651 16.214 60.8424 16.0765C61.0197 15.9389 61.1351 15.7366 61.1633 15.514C61.1914 15.2914 61.13 15.0668 60.9924 14.8895C60.8549 14.7122 60.6526 14.5968 60.43 14.5686C60.2074 14.5405 59.9828 14.6019 59.8055 14.7394C59.6282 14.877 59.5128 15.0793 59.4846 15.3019C59.4565 15.5245 59.5179 15.7491 59.6554 15.9264C59.793 16.1037 59.9953 16.2191 60.2179 16.2473Z" fill="black"/>
<path fill-rule="evenodd" clip-rule="evenodd" d="M53.6075 10.3281C53.6854 10.2677 53.7744 10.2232 53.8694 10.1972C53.9644 10.1712 54.0637 10.1642 54.1614 10.1765C54.2592 10.1889 54.3535 10.2204 54.4391 10.2692C54.5247 10.318 54.5998 10.3833 54.6602 10.4611L55.7246 11.8324C56.7617 11.3793 57.9023 11.2159 59.025 11.3596L59.2303 11.3855C60.3961 11.5328 61.446 11.9901 62.3092 12.6647L63.6814 11.6013C63.8391 11.4877 64.0347 11.4398 64.227 11.4675C64.4193 11.4953 64.5934 11.5966 64.7125 11.7502C64.8316 11.9038 64.8864 12.0975 64.8655 12.2907C64.8445 12.4839 64.7494 12.6615 64.6001 12.7859L63.3808 13.7325C64.3098 14.9088 64.7866 16.379 64.7247 17.8767C65.0605 17.81 65.4073 17.8241 65.7366 17.9178C66.0658 18.0115 66.3681 18.1821 66.6185 18.4156C66.8688 18.649 67.0601 18.9386 67.1766 19.2605C67.293 19.5824 67.3313 19.9274 67.2883 20.267L66.6516 25.3039C66.6092 25.6416 66.4875 25.9644 66.2966 26.2462C66.1057 26.5279 65.8509 26.7605 65.553 26.9251C65.2551 27.0896 64.9226 27.1815 64.5824 27.1931C64.2423 27.2048 63.9043 27.1359 63.5958 26.9921L63.362 28.8424C63.2475 29.7482 62.7047 30.494 61.9633 30.9053L61.7789 32.3637C61.6977 33.0062 61.3646 33.5902 60.8528 33.9871C60.341 34.384 59.6925 34.5614 59.05 34.4802C58.4074 34.399 57.8235 34.0658 57.4266 33.5541C57.0296 33.0423 56.8523 32.3938 56.9335 31.7512L57.0516 30.8167L56.3006 30.7218L56.1823 31.6573C56.1011 32.2999 55.768 32.8838 55.2562 33.2808C54.7444 33.6777 54.0959 33.855 53.4534 33.7738C52.8108 33.6926 52.2269 33.3595 51.8299 32.8477C51.433 32.3359 51.2557 31.6874 51.3369 31.0449L51.5213 29.5855C51.2062 29.2885 50.9657 28.9211 50.8197 28.5134C50.6736 28.1057 50.626 27.6692 50.6809 27.2396L50.9147 25.3893C50.5802 25.4518 50.2356 25.4345 49.9091 25.3385C49.5826 25.2426 49.2833 25.0709 49.0358 24.8374C48.7882 24.6039 48.5993 24.3152 48.4845 23.9949C48.3697 23.6745 48.3322 23.3316 48.375 22.994L49.0117 17.957C49.0545 17.6175 49.1774 17.293 49.3702 17.0103C49.563 16.7276 49.8202 16.4948 50.1207 16.3309C50.4211 16.1671 50.7562 16.077 51.0983 16.0681C51.4404 16.0592 51.7797 16.1317 52.0883 16.2796C52.4011 14.8136 53.2287 13.5083 54.4211 12.6L53.4746 11.3797C53.3529 11.2226 53.2986 11.0236 53.3235 10.8264C53.3484 10.6292 53.4506 10.45 53.6075 10.3281ZM53.6264 17.875C53.5609 17.8673 53.4949 17.8857 53.443 17.9264C53.391 17.967 53.3572 18.0265 53.349 18.092L52.169 27.4277C52.1275 27.7557 52.2178 28.0868 52.4199 28.3485C52.622 28.6102 52.9196 28.7812 53.2474 28.8239L60.4809 29.7382C60.8091 29.7783 61.1399 29.6868 61.4007 29.4836C61.6616 29.2805 61.8314 28.9822 61.8728 28.6542L63.0528 19.3184C63.061 19.253 63.0431 19.1869 63.0029 19.1347C62.9627 19.0824 62.9034 19.0481 62.8381 19.0393L53.6264 17.875ZM63.0281 17.5514L63.2295 17.5769C63.2177 16.4194 62.7871 15.3053 62.0172 14.4408C61.2474 13.5764 60.1905 13.02 59.0421 12.8747L58.8368 12.8487C57.6883 12.7038 56.5262 12.9797 55.5655 13.6254C54.6048 14.2712 53.9105 15.243 53.6111 16.3612L63.0281 17.5514ZM58.4215 31.9403L58.5398 31.0048L60.4089 31.241L60.2906 32.1766C60.2751 32.2993 60.2356 32.4178 60.1743 32.5252C60.113 32.6327 60.0311 32.727 59.9334 32.8028C59.8356 32.8786 59.7239 32.9344 59.6046 32.9671C59.4853 32.9997 59.3607 33.0085 59.238 32.993C59.1152 32.9775 58.9968 32.938 58.8893 32.8767C58.7819 32.8154 58.6875 32.7335 58.6117 32.6358C58.5359 32.538 58.4801 32.4263 58.4474 32.307C58.4148 32.1876 58.406 32.0631 58.4215 31.9403ZM53.0574 30.3118L54.8124 30.5337L54.6942 31.4692C54.6628 31.7171 54.5343 31.9424 54.3369 32.0955C54.1395 32.2486 53.8893 32.317 53.6415 32.2857C53.3936 32.2543 53.1683 32.1258 53.0152 31.9284C52.8621 31.731 52.7937 31.4808 52.825 31.233L52.9433 30.2974L53.0574 30.3118ZM64.4258 25.6889C64.2525 25.667 64.0949 25.5772 63.9876 25.4394C63.8804 25.3015 63.8321 25.1267 63.8535 24.9533L64.4909 19.9104C64.5132 19.7368 64.6036 19.5792 64.7422 19.4722C64.8108 19.4193 64.8892 19.3803 64.9728 19.3577C65.0565 19.335 65.1438 19.329 65.2297 19.3401C65.3157 19.3511 65.3986 19.379 65.4738 19.4221C65.549 19.4653 65.615 19.5228 65.6679 19.5914C65.7209 19.66 65.7598 19.7384 65.7825 19.822C65.8052 19.9057 65.8112 19.993 65.8001 20.0789L65.1635 25.1159C65.1415 25.2895 65.0515 25.4473 64.9132 25.5546C64.7748 25.6619 64.5995 25.7108 64.4258 25.6889ZM51.809 18.3055C51.8305 18.1318 51.782 17.9567 51.6743 17.8187C51.5666 17.6807 51.4085 17.5912 51.2348 17.5697C51.061 17.5483 50.8859 17.5968 50.7479 17.7045C50.6099 17.8122 50.5204 17.9703 50.4989 18.144L49.8623 23.1809C49.8397 23.3545 49.887 23.5299 49.9937 23.6687C50.1005 23.8074 50.258 23.898 50.4316 23.9206C50.6051 23.9432 50.7806 23.896 50.9193 23.7892C51.058 23.6825 51.1487 23.525 51.1713 23.3514L51.8089 18.3065L51.809 18.3055Z" fill="black"/>
</g>
<defs>
<clipPath id="clip0_253_1202">
<rect width="24" height="24" fill="white" transform="translate(47.3633 9.06543) rotate(7.20348)"/>
</clipPath>
</defs>
</svg>
